<svg width="16" height="15" viewBox="0 0 16 15" fill="none" xmlns="http://www.w3.org/2000/svg">
<path d="M0.455003 13.2934C0.0644783 13.6839 0.0644783 14.3171 0.455003 14.7076C0.845527 15.0981 1.47869 15.0981 1.86922 14.7076L0.455003 13.2934ZM15.1621 1.00049C15.1621 0.448203 14.7144 0.000487707 14.1621 0.000487454L5.16211 0.000488255C4.60983 0.000487918 4.16211 0.448203 4.16211 1.00049C4.16211 1.55277 4.60983 2.00049 5.16211 2.00049L13.1621 2.00049L13.1621 10.0005C13.1621 10.5528 13.6098 11.0005 14.1621 11.0005C14.7144 11.0005 15.1621 10.5528 15.1621 10.0005L15.1621 1.00049ZM1.86922 14.7076L14.8692 1.70759L13.455 0.293381L0.455003 13.2934L1.86922 14.7076Z" fill="white"/>
</svg>
